<svg width="488" height="62" viewBox="0 0 488 62" fill="none" xmlns="http://www.w3.org/2000/svg">
<path d="M113.231 32.7764C111.474 44.0163 101.095 53.0081 89.6288 53.0081C78.1624 53.0081 70.6298 44.0995 72.3874 32.7764C74.145 21.4533 84.5234 12.4615 95.9061 12.4615C107.456 12.4615 114.989 21.4533 113.231 32.7764ZM106.954 32.7764C108.209 24.5339 103.02 18.2895 95.0691 18.2895C87.2016 18.2895 80.0038 24.5339 78.7483 32.7764C77.4929 40.9357 82.682 47.0968 90.5495 47.0968C98.5007 47.0968 105.699 40.9357 106.954 32.7764Z" fill="white"/>
<path d="M146.877 34.7747L144.199 52.1756H138.005L140.516 35.9403C141.269 31.1946 139.009 28.114 134.825 28.114C129.636 28.114 125.618 31.6109 124.53 38.8543L122.438 52.1756H116.328L120.847 23.3683H126.957L126.371 26.9484C129.133 24.1176 132.732 22.619 137.084 22.619C144.115 22.5357 147.965 27.5312 146.877 34.7747Z" fill="white"/>
<path d="M180.439 39.1873H157.004C156.753 44.5158 160.185 47.7629 164.453 47.7629C167.634 47.7629 171.065 46.847 173.744 42.7674L179.017 43.933C175.669 50.0108 170.061 53.0081 163.616 53.0081C155.749 53.0081 149.807 46.9303 151.229 37.8552C152.652 28.6968 160.436 22.5357 168.638 22.5357C176.422 22.5357 181.862 28.447 180.858 37.1058L180.439 39.1873ZM157.841 34.9411H174.915C174.748 30.1954 171.735 27.9475 167.801 27.9475C163.951 27.8642 159.515 30.2787 157.841 34.9411Z" fill="white"/>
<path d="M217.768 37.2725L223.626 38.5213C220.027 47.6797 211.658 53.0082 202.451 53.0082C191.069 53.0082 183.452 44.0996 185.21 32.6933C186.967 21.3702 197.346 12.3783 208.728 12.3783C217.935 12.3783 224.631 17.7068 225.551 26.3657L219.191 28.1141C218.437 21.5367 213.918 18.2896 207.808 18.2896C199.94 18.2896 192.742 24.534 191.487 32.6933C190.232 40.8525 195.421 47.0969 203.288 47.0969C209.482 47.0969 215.006 43.8498 217.768 37.2725Z" fill="white"/>
<path d="M227.811 52.1756L234.34 10.2968H240.449L233.921 52.1756H227.811Z" fill="white"/>
<path d="M242.374 52.1756L246.894 23.3683H253.004L248.484 52.1756H242.374ZM255.096 14.7095C254.762 16.8742 252.92 18.4561 250.66 18.4561C248.401 18.4561 246.978 16.8742 247.313 14.7095C247.647 12.7113 249.572 10.9629 251.832 10.9629C254.008 10.8796 255.431 12.628 255.096 14.7095Z" fill="white"/>
<path d="M279.871 41.352L285.227 42.7674C282.716 49.0117 276.272 52.9249 269.492 52.9249C261.206 52.9249 255.18 46.847 256.603 37.6887C258.026 28.6968 265.977 22.4525 274.263 22.4525C280.791 22.4525 285.981 26.3656 286.818 32.5267L280.708 34.1918C280.289 29.9457 277.276 27.9475 273.342 27.9475C267.986 27.9475 263.383 31.8606 262.462 37.6054C261.541 43.5167 264.973 47.2633 270.329 47.2633C274.263 47.4298 277.862 45.5982 279.871 41.352Z" fill="white"/>
<path d="M310.587 52.1756L299.12 40.1864H297.363L295.522 52.1756H289.412L295.94 10.2968H302.05L298.367 34.1919H300.208L314.018 23.2851H321.802L304.477 37.2724L319.04 52.1756H310.587Z" fill="white"/>
<path d="M358.127 34.9412C356.453 45.6814 348.753 52.9249 338.793 52.9249C328.665 52.9249 323.058 45.6814 324.732 34.9412L328.08 13.2108H334.357L331.009 34.9412C329.837 42.1846 333.352 46.9303 339.797 46.9303C345.907 46.9303 350.845 42.1846 351.933 34.9412L355.281 13.2108H361.558L358.127 34.9412Z" fill="white"/>
<path d="M396.292 37.7719C394.869 46.9303 387.169 53.0081 379.553 53.0081C375.201 53.0081 371.769 51.5095 369.677 48.8452L367.584 62H361.474L367.501 23.285H373.61L373.108 26.6154C376.038 24.0344 379.888 22.4525 384.24 22.4525C391.856 22.5357 397.715 28.6968 396.292 37.7719ZM390.35 37.7719C391.27 31.6941 387.755 27.8642 382.399 27.8642C377.628 27.8642 372.271 31.6941 371.351 37.7719C370.43 43.8498 374.531 47.6796 379.302 47.6796C384.742 47.6796 389.429 43.8498 390.35 37.7719Z" fill="white"/>
<path d="M404.578 43.1837C404.494 46.5973 407.256 48.096 411.023 48.096C414.538 48.096 416.965 46.5141 417.3 44.2661C417.551 42.5177 416.547 41.4353 413.952 40.8525L407.842 39.6036C402.988 38.5213 400.561 35.857 401.147 31.7774C401.984 26.4489 407.089 22.619 414.036 22.619C420.732 22.619 424.665 26.1159 424.916 30.9448L418.974 32.1937C418.974 29.3629 416.882 27.448 413.115 27.448C409.516 27.448 407.675 29.1964 407.424 31.1946C407.173 32.8598 407.926 33.8588 410.437 34.4417L417.133 35.9403C421.652 36.9394 424.079 39.6869 423.493 43.7665C422.573 49.8444 417.049 53.0914 409.851 53.0914C403.406 53.0914 398.217 50.3439 398.385 44.5159L404.578 43.1837Z" fill="white"/>
<path d="M456.804 39.1873H433.369C433.118 44.5158 436.55 47.7629 440.818 47.7629C443.999 47.7629 447.43 46.847 450.109 42.7674L455.381 43.933C452.034 50.0108 446.426 53.0081 439.981 53.0081C432.114 53.0081 426.171 46.9303 427.594 37.8552C429.017 28.6968 436.801 22.5357 445.003 22.5357C452.787 22.5357 458.227 28.447 457.223 37.1058L456.804 39.1873ZM434.206 34.9411H451.28C451.113 30.1954 448.1 27.9475 444.166 27.9475C440.316 27.8642 435.88 30.2787 434.206 34.9411Z" fill="white"/>
<path d="M460.404 52.1756L466.932 10.2968H473.042L466.513 52.1756H460.404Z" fill="white"/>
<path d="M474.464 52.1756L480.992 10.2968H487.102L480.574 52.1756H474.464Z" fill="white"/>
<path d="M35.2102 8.76324L43.2855 30.3062L31.9801 24.8292L27.9424 48.9282H19.2065L23.2441 24.8292L10.1034 30.3062L25.373 8.76324H5.03803L0.339686 37.0247C-1.93607 50.8269 7.46061 62 21.4088 62C35.357 62 48.5711 50.8269 50.8469 37.0247L55.6186 8.76324H35.2102Z" fill="white"/>
<path d="M31.5395 0L9.66284 31.0365L23.0972 25.4134L18.9861 50.1696H27.9423L32.0534 25.4134L43.579 31.0365L31.5395 0Z" fill="url(#paint0_linear)"/>
<defs>
<linearGradient id="paint0_linear" x1="32.9258" y1="-6.57996" x2="24.286" y2="45.5318" gradientUnits="userSpaceOnUse">
<stop stop-color="#FFD748"/>
<stop offset="1" stop-color="#FD3E5D"/>
</linearGradient>
</defs>
</svg>
