<?xml version="1.0" encoding="UTF-8"?>
<svg width="364px" height="60px" viewBox="0 0 364 60" version="1.1" xmlns="http://www.w3.org/2000/svg" xmlns:xlink="http://www.w3.org/1999/xlink">
    <!-- Generator: Sketch 47.1 (45422) - http://www.bohemiancoding.com/sketch -->
    <title>zipify_ocu_logo</title>
    <desc>Created with Sketch.</desc>
    <defs></defs>
    <g id="Mockups" stroke="none" stroke-width="1" fill="none" fill-rule="evenodd">
        <g id="Zipify-home-page" transform="translate(-793.000000, -1411.000000)">
            <g id="Why-Zipify-Pages" transform="translate(200.000000, 1184.000000)">
                <g id="Stacked-Group">
                    <g id="Products" transform="translate(0.000000, 157.000000)">
                        <g id="Stacked-Group-2" transform="translate(550.000000, 0.000000)">
                            <g id="OCU">
                                <g id="zipify_ocu_logo" transform="translate(43.000000, 70.000000)">
                                    <g id="Group-3" transform="translate(0.000000, 3.000000)" fill="#67B800">
                                        <path d="M35.5327565,-6e-05 L43.6702853,21.86094 L32.2738471,16.32294 L28.2155769,40.78014 L19.4073166,40.78014 L23.4655868,16.32294 L10.2314583,21.86094 L25.6241008,-6e-05 L5.10787348,-6e-05 L0.347988797,28.68444 C-1.97183657,42.66594 7.5506313,53.99994 21.6177021,53.99994 C35.6844731,53.99994 48.968974,42.66594 51.2887993,28.68444 L56.0489839,-6e-05 L35.5327565,-6e-05 Z" id="Fill-1"></path>
                                    </g>
                                    <path d="M99.9112537,39.53154 C100.803264,33.76434 97.1755568,29.41884 91.6591878,29.41884 C86.1832965,29.41884 81.2117282,33.76434 80.3200181,39.53154 C79.4346046,45.25794 83.0686079,49.56294 88.5444992,49.56294 C94.0608682,49.56294 99.0258402,45.25794 99.9112537,39.53154 M104.292147,39.53154 C103.073916,47.41014 95.8601796,53.66424 87.9103476,53.66424 C79.959916,53.66424 74.7208946,47.41014 75.9391252,39.53154 C77.1636524,31.61214 84.3432076,25.31694 92.2933394,25.31694 C100.243471,25.31694 105.516674,31.61214 104.292147,39.53154" id="Fill-4" fill="#272C30"></path>
                                    <path d="M127.644995,40.91217 L125.76113,53.09607 L121.502271,53.09607 L123.254208,41.76537 C123.762729,38.47557 122.19549,36.28257 119.315272,36.28257 C115.705556,36.28257 112.935378,38.71917 112.150409,43.79577 L110.712699,53.09607 L106.494017,53.09607 L109.608705,32.95227 L113.827088,32.95227 L113.443898,35.42967 C115.367941,33.47997 117.890155,32.38377 120.891806,32.38377 C125.718554,32.38377 128.423668,35.87637 127.644995,40.91217" id="Fill-6" fill="#272C30"></path>
                                    <path d="M135.251696,41.03388 L147.096088,41.03388 C146.955465,37.74438 144.894997,36.11988 142.136513,36.11988 C139.500062,36.11988 136.403063,37.78518 135.251696,41.03388 L135.251696,41.03388 Z M150.971459,44.03928 L134.665218,44.03928 C134.493413,47.77578 136.865709,50.00928 139.826582,50.00928 C142.057656,50.00928 144.429653,49.35948 146.288931,46.51668 L149.935528,47.32908 C147.6193,51.55248 143.723241,53.66448 139.261693,53.66448 C133.785501,53.66448 129.652272,49.44078 130.638131,43.06488 C131.630586,36.64758 137.035416,32.38398 142.714296,32.38398 C148.108632,32.38398 151.930032,36.52578 151.197235,42.57738 L150.971459,44.03928 Z" id="Fill-8" fill="#272C30"></path>
                                    <path d="M176.895125,42.69912 L180.975283,43.59282 C178.488749,49.96872 172.644061,53.66442 166.235382,53.66442 C158.325728,53.66442 153.039632,47.45082 154.270456,39.49092 C155.494983,31.57152 162.709019,25.31712 170.618374,25.31712 C177.027352,25.31712 181.682295,29.05332 182.293958,35.06382 L177.88728,36.28242 C177.379659,31.69332 174.243382,29.41872 169.984522,29.41872 C164.508331,29.41872 159.536762,33.76452 158.651349,39.49092 C157.766235,45.21702 161.393642,49.56282 166.869533,49.56282 C171.128393,49.56282 174.968384,47.28852 176.895125,42.69912" id="Fill-10" fill="#272C30"></path>
                                    <polygon id="Fill-12" fill="#272C30" points="183.845816 53.09601 188.367032 23.85501 192.585414 23.85501 188.064198 53.09601"></polygon>
                                    <path d="M202.822839,26.90079 C202.590766,28.40349 201.285284,29.49999 199.743831,29.49999 C198.1619,29.49999 197.195531,28.40349 197.427903,26.90079 C197.647682,25.47939 198.971755,24.26109 200.553986,24.26109 C202.095139,24.26109 203.042618,25.47939 202.822839,26.90079 L202.822839,26.90079 Z M193.986094,53.09589 L197.100483,32.95239 L201.318865,32.95239 L198.204776,53.09589 L193.986094,53.09589 Z" id="Fill-14" fill="#272C30"></path>
                                    <path d="M220.058958,45.5421 L223.796105,46.5573 C222.028876,50.9031 217.545739,53.6643 212.881202,53.6643 C207.121667,53.6643 202.913179,49.4004 203.899038,43.0239 C204.872603,36.7293 210.411759,32.3838 216.171295,32.3838 C220.714398,32.3838 224.303127,35.1453 224.895001,39.45 L220.65683,40.6281 C220.344402,37.6629 218.246155,36.2826 215.568626,36.2826 C211.836876,36.2826 208.652026,39.0441 208.036464,43.0239 C207.402313,47.1258 209.752122,49.7658 213.483871,49.7658 C216.1611,49.7658 218.633542,48.4662 220.058958,45.5421" id="Fill-16" fill="#272C30"></path>
                                    <polygon id="Fill-18" fill="#272C30" points="241.403181 53.09601 233.408074 44.72991 232.191043 44.72991 230.897553 53.09601 226.679171 53.09601 231.200387 23.85501 235.418769 23.85501 232.838087 40.54671 234.095296 40.54671 243.666038 32.95221 249.060374 32.95221 237.007896 42.69921 247.122538 53.09601"></polygon>
                                    <path d="M274.414053,41.07462 C273.252191,48.58782 267.883941,53.66442 260.98833,53.66442 C253.930508,53.66442 250.05034,48.58782 251.212201,41.07462 L253.560811,25.88562 L257.900926,25.88562 L255.552317,41.07462 C254.767348,46.15152 257.173226,49.48122 261.635074,49.48122 C265.893934,49.48122 269.288669,46.15152 270.073638,41.07462 L272.422247,25.88562 L276.762663,25.88562 L274.414053,41.07462 Z" id="Fill-20" fill="#272C30"></path>
                                    <path d="M296.826738,43.02402 C297.47978,38.80032 295.014534,36.11982 291.323262,36.11982 C287.99719,36.11982 284.297223,38.80032 283.643882,43.02402 C282.984544,47.28852 285.862063,49.92822 289.188135,49.92822 C292.879707,49.92822 296.167401,47.28852 296.826738,43.02402 M300.923387,43.02402 C299.937829,49.40022 294.572877,53.66442 289.299974,53.66442 C286.258145,53.66442 283.906238,52.60872 282.444541,50.78112 L281.019124,59.99982 L276.800742,59.99982 L280.982844,32.95242 L285.201526,32.95242 L284.843223,35.26722 C286.870109,33.43962 289.548537,32.38392 292.590366,32.38392 C297.863269,32.38392 301.903249,36.68862 300.923387,43.02402" id="Fill-22" fill="#272C30"></path>
                                    <path d="M306.707839,46.80114 C306.620887,49.19694 308.573114,50.21244 311.209866,50.21244 C313.643329,50.21244 315.354488,49.11594 315.599454,47.53224 C315.78775,46.31364 315.055253,45.54204 313.252343,45.13614 L309.009375,44.24274 C305.640726,43.47084 303.941859,41.60274 304.381417,38.75994 C304.9592,35.02344 308.49036,32.38374 313.317408,32.38374 C317.941467,32.38374 320.688258,34.82004 320.896943,38.19114 L316.749322,39.04434 C316.726235,37.09464 315.270534,35.75454 312.674261,35.75454 C310.20002,35.75454 308.916726,36.97284 308.696946,38.39454 C308.520943,39.53154 309.057348,40.26234 310.778702,40.66854 L315.402162,41.72424 C318.540538,42.41484 320.232508,44.32344 319.793249,47.16654 C319.139908,51.39024 315.340696,53.66424 310.311259,53.66424 C305.808633,53.66424 302.250488,51.75594 302.350933,47.69454 L306.707839,46.80114 Z" id="Fill-24" fill="#272C30"></path>
                                    <path d="M327.27171,41.03388 L339.116102,41.03388 C338.97548,37.74438 336.915012,36.11988 334.156827,36.11988 C331.520076,36.11988 328.423078,37.78518 327.27171,41.03388 L327.27171,41.03388 Z M342.991473,44.03928 L326.685532,44.03928 C326.513427,47.77578 328.885724,50.00928 331.846897,50.00928 C334.077671,50.00928 336.449668,49.35948 338.308946,46.51668 L341.955542,47.32908 C339.639315,51.55248 335.743556,53.66448 331.281407,53.66448 C325.805516,53.66448 321.672287,49.44078 322.658145,43.06488 C323.6506,36.64758 329.05543,32.38398 334.73431,32.38398 C340.128946,32.38398 343.950346,36.52578 343.217249,42.57738 L342.991473,44.03928 Z" id="Fill-26" fill="#272C30"></path>
                                    <polygon id="Fill-28" fill="#272C30" points="345.444545 53.09601 349.965461 23.85501 354.183843 23.85501 349.662928 53.09601"></polygon>
                                    <polygon id="Fill-30" fill="#272C30" points="355.260342 53.09601 359.781558 23.85501 363.99994 23.85501 359.478724 53.09601"></polygon>
                                    <polygon id="Fill-32" fill="#67B800" points="90.0806751 16.45146 90.548718 13.49406 86.3234395 13.49406 92.1396438 6.40416 82.1245466 6.40416 81.6568036 9.36156 85.7450573 9.36156 79.9090639 16.45146"></polygon>
                                    <path d="M95.915739,4.54374 C97.0110372,4.54374 98.0535644,3.64284 98.2268692,2.54604 C98.4007736,1.44924 97.6433898,0.54834 96.5477918,0.54834 C95.4527934,0.54834 94.4102662,1.44924 94.2366616,2.54604 C94.063057,3.64284 94.8204409,4.54374 95.915739,4.54374" id="Fill-34" fill="#67B800"></path>
                                    <polygon id="Fill-36" fill="#67B800" points="97.4016026 6.40425 93.8413588 6.40425 92.2516323 16.45155 95.8118761 16.45155"></polygon>
                                    <path d="M102.668629,11.43759 C102.863821,10.20399 103.869169,9.16599 105.316774,9.16599 C106.764378,9.16599 107.441106,10.20399 107.245914,11.43759 C107.044424,12.71079 106.048372,13.68999 104.601067,13.68999 C103.153462,13.68999 102.467139,12.71079 102.668629,11.43759 L102.668629,11.43759 Z M102.144517,15.49179 C102.768174,16.37319 103.896154,16.78449 105.05022,16.78449 C108.023386,16.78449 110.461647,14.35569 110.920395,11.45709 C111.375844,8.57829 109.698866,6.07119 106.70621,6.07119 C105.532355,6.07119 104.245162,6.54129 103.441904,7.54029 L103.402625,7.54029 L103.582227,6.40419 L100.022283,6.40419 L98.065258,18.77469 L101.625202,18.77469 L102.144517,15.49179 Z" id="Fill-38" fill="#67B800"></path>
                                    <path d="M115.554379,4.54374 C116.649677,4.54374 117.691904,3.64284 117.865509,2.54604 C118.039113,1.44924 117.281729,0.54834 116.186431,0.54834 C115.091133,0.54834 114.048606,1.44924 113.875301,2.54604 C113.701697,3.64284 114.45908,4.54374 115.554379,4.54374" id="Fill-40" fill="#67B800"></path>
                                    <polygon id="Fill-42" fill="#67B800" points="117.040062 6.40425 113.479818 6.40425 111.890392 16.45155 115.450336 16.45155"></polygon>
                                    <path d="M118.540858,16.45146 L122.101101,16.45146 L123.225784,9.34206 L125.709919,9.34206 L126.174663,6.40416 L123.690528,6.40416 L123.947787,4.77876 C124.127388,3.64296 124.527069,3.09456 125.446663,3.09456 C125.915905,3.09456 126.262815,3.25116 126.645704,3.42726 L127.132337,0.35256 C126.683484,0.09786 126.210044,6e-05 125.662245,6e-05 C124.312686,6e-05 122.951134,0.56796 121.906808,1.60596 C120.752143,2.72226 120.551853,3.74076 120.332073,5.13126 L120.130584,6.40416 L118.878472,6.40416 L118.413728,9.34206 L119.66554,9.34206 L118.540858,16.45146 Z" id="Fill-44" fill="#67B800"></path>
                                    <polygon id="Fill-46" fill="#67B800" points="139.749824 6.40425 135.700849 6.40425 132.264737 11.55495 130.399462 6.40425 126.292019 6.40425 129.770408 15.08055 127.205317 18.77445 131.189528 18.77445"></polygon>
                                </g>
                            </g>
                        </g>
                    </g>
                </g>
            </g>
        </g>
    </g>
</svg>