<svg xmlns="http://www.w3.org/2000/svg" viewBox="0 0 561.97 773.8"><defs><style>.cls-1{fill:#fafafa;}.cls-2{fill:#52535e;}.cls-3{fill:#eee;}.cls-4{fill:#fff;}.cls-5{fill:#26a69a;}.cls-6{fill:#66bb6a;}.cls-7{fill:#1e88e5;}.cls-8{fill:#90caf9;}.cls-9{fill:#e0e0e0;}.cls-10{fill:#bdbdbd;}.cls-11{fill:#1565c0;}.cls-12{fill:#29b6f6;}.cls-13{fill:#e64a19;}.cls-14{fill:#f9a825;}.cls-15{fill:#f57c00;}</style></defs><title>zipify_about_hero_v20</title><g id="Layer_2" data-name="Layer 2"><g id="Layer_1-2" data-name="Layer 1"><rect class="cls-1" x="1" y="1" width="559.97" height="771.8"/><path class="cls-2" d="M560,2V771.8H2V2H560m2-2H0V773.8H562V0Z"/><rect class="cls-3" x="57.42" y="87.75" width="184.68" height="479.05"/><circle class="cls-4" cx="154.22" cy="179.23" r="71.8"/><path class="cls-5" d="M126,229.31h56.39V169.93l-9.93-41.52-6.15-.28s-2.79,19.51-12,19.51-12-19.51-12-19.51l-6.45.43-9.74,41.08Z"/><rect class="cls-6" x="304.21" y="289.05" width="147.24" height="42.48" rx="21.24" ry="21.24"/><rect class="cls-7" x="2" y="2" width="557.97" height="56.13"/><path class="cls-8" d="M51.93,16.72c-1.14-.55-6.45-1.21-6.45-1.21v0c0,1.61-1.75,2.16-3.92,2.16s-3.93-.55-3.93-2.16v0a57.3,57.3,0,0,0-6.45,1.21L25.7,19.38,29,25.6l3.42-1.71V41.2H50.69V23.89l3.42,1.71,3.31-6.22Zm-6,7.51a1.64,1.64,0,0,1-.41,1.06l-5.37,6.24H45a1,1,0,0,1,1,1,1,1,0,0,1-1,1H38.17a1,1,0,0,1-1-1v0a1.66,1.66,0,0,1,.41-1.07l5.37-6.24h-4.6a1,1,0,1,1,0-2H45a1,1,0,0,1,1,1Z"/><rect class="cls-9" x="242.1" y="23.65" width="45" height="12.82"/><rect class="cls-9" x="304.21" y="23.65" width="45" height="12.82"/><rect class="cls-9" x="366.33" y="23.65" width="45" height="12.82"/><rect class="cls-9" x="428.44" y="23.65" width="45" height="12.82"/><rect class="cls-9" x="490.55" y="23.65" width="45" height="12.82"/><rect class="cls-9" x="304.21" y="161.08" width="201.64" height="11.1"/><rect class="cls-7" x="304.21" y="87.75" width="179.74" height="16.72"/><rect class="cls-7" x="304.21" y="119.77" width="100.82" height="16.72"/><rect class="cls-9" x="304.21" y="181.66" width="201.64" height="11.1"/><rect class="cls-9" x="304.21" y="201.56" width="201.64" height="11.1"/><rect class="cls-9" x="304.21" y="222.88" width="201.64" height="11.1"/><rect class="cls-9" x="304.21" y="245.14" width="201.64" height="11.1"/><rect class="cls-9" x="310.33" y="416.64" width="201.64" height="11.1"/><rect class="cls-9" x="310.5" y="435.58" width="201.64" height="11.1"/><rect class="cls-9" x="104.76" y="392" width="74.57" height="11.1"/><rect class="cls-9" x="104.76" y="371.25" width="74.57" height="11.1"/><rect class="cls-9" x="104.76" y="351.87" width="74.57" height="11.1"/><rect class="cls-9" x="77.48" y="392" width="14.57" height="11.1" rx="5.55" ry="5.55"/><rect class="cls-9" x="77.48" y="371.25" width="14.57" height="11.1" rx="5.55" ry="5.55"/><rect class="cls-9" x="77.48" y="351.87" width="14.57" height="11.1" rx="5.55" ry="5.55"/><rect class="cls-9" x="77.48" y="413.32" width="94.57" height="11.1"/><rect class="cls-9" x="77.48" y="435.58" width="84.57" height="11.1"/><rect class="cls-9" x="77.48" y="455.95" width="54.57" height="11.1"/><rect class="cls-9" x="77.48" y="476.53" width="144.57" height="11.1"/><rect class="cls-9" x="187.48" y="496.43" width="34.57" height="11.1"/><rect class="cls-9" x="187.48" y="517.74" width="34.57" height="11.1"/><rect class="cls-9" x="187.48" y="540" width="34.57" height="11.1"/><rect class="cls-10" x="77.48" y="300.34" width="148.54" height="21.32"/><rect class="cls-11" x="310.95" y="357.42" width="34.58" height="34.58"/><rect class="cls-12" x="360.54" y="357.42" width="34.58" height="34.58"/><rect class="cls-13" x="411.15" y="357.42" width="34.58" height="34.58"/><circle class="cls-4" cx="144.23" cy="678.96" r="47.36"/><circle class="cls-4" cx="282.57" cy="678.96" r="47.36"/><circle class="cls-4" cx="417.74" cy="678.96" r="47.36"/><path class="cls-14" d="M126.35,708.72h34.57V671.14l2.75,2.47,9.05-11-9.05-9.87-11.8-3.57a13.5,13.5,0,0,1-7.59,2.19s-4.67.28-7.59-2.19l-12,3.66-9,10L124,673.7l2.47-2.74Z"/><path class="cls-6" d="M264.69,708.72h34.57V671.14l2.75,2.47,9.05-11L302,652.76l-11.79-3.57a13.5,13.5,0,0,1-7.59,2.19s-4.67.28-7.59-2.19l-12,3.66-9,10,8.23,10.88,2.47-2.74Z"/><path class="cls-15" d="M399.86,708.72h34.57V671.14l2.75,2.47,9.05-11-9.05-9.87-11.8-3.57a13.5,13.5,0,0,1-7.59,2.19s-4.67.28-7.59-2.19l-12,3.66-9,10,8.23,10.88L400,671Z"/><rect class="cls-9" x="57.42" y="585.14" width="441.64" height="11.1"/><rect class="cls-9" x="57.42" y="602.87" width="441.64" height="11.1"/></g></g></svg>