<?xml version="1.0" encoding="UTF-8"?>
<svg width="200px" height="60px" viewBox="0 0 200 60" version="1.1" xmlns="http://www.w3.org/2000/svg" xmlns:xlink="http://www.w3.org/1999/xlink">
    <!-- Generator: Sketch 47.1 (45422) - http://www.bohemiancoding.com/sketch -->
    <title>zipify_pages_logo</title>
    <desc>Created with Sketch.</desc>
    <defs>
        <polygon id="path-1" points="0.224520958 28.2 23.6993713 28.2 23.6993713 0.19116 0.224520958 0.19116"></polygon>
        <polygon id="path-3" points="18.5628743 21.1476 18.5628743 0.1512 0.268430735 0.1512 0.268430735 21.1476 18.5628743 21.1476"></polygon>
    </defs>
    <g id="Mockups" stroke="none" stroke-width="1" fill="none" fill-rule="evenodd">
        <g id="Zipify-home-page" transform="translate(-325.000000, -1411.000000)">
            <g id="Why-Zipify-Pages" transform="translate(200.000000, 1184.000000)">
                <g id="Stacked-Group">
                    <g id="Products" transform="translate(0.000000, 157.000000)">
                        <g id="Stacked-Group">
                            <g id="Zipify-pages">
                                <g id="zipify_pages_logo" transform="translate(125.000000, 70.000000)">
                                    <polygon id="Fill-1" fill="#3BA949" points="19.1395509 6e-05 17.3191916 11.54796 16.2278743 18.46776 27.7290719 18.46776 28.8200898 11.54796 54.0727844 11.54796 50.0751796 36.90396 43.2242814 36.90396 41.4036228 48.45186 48.254521 48.45186 59.7557186 48.45186 61.5760778 36.90396 65.5736826 11.54796 67.3943413 6e-05"></polygon>
                                    <polygon id="Fill-2" fill="#3BA949" points="15.1420958 25.35576 15.135509 25.39656 13.3217365 36.90396 1.82053892 36.90396 -0.000119760479 48.45186 11.5007784 48.45186 9.68041916 60.00006 21.1813174 60.00006 23.001976 48.45186 34.5028743 48.45186 36.3232335 36.90396 24.8226347 36.90396 26.642994 25.35576"></polygon>
                                    <g id="Group-31" transform="translate(85.329341, 0.000000)">
                                        <path d="M14.2489222,39.00369 C17.6094012,39.00369 19.9073054,37.08039 20.3531138,34.19499 C20.7806587,31.43019 19.0896407,29.42679 15.7291617,29.42679 L7.92766467,29.42679 L6.44742515,39.00369 L14.2489222,39.00369 Z M16.3300599,25.53999 C22.251018,25.53999 25.4267665,29.06619 24.6339521,34.19499 C23.8288623,39.40449 19.562994,42.93009 13.6420359,42.93009 L5.84053892,42.93009 L4.37886228,52.38699 L0.0980239521,52.38699 L4.24802395,25.53999 L16.3300599,25.53999 Z" id="Fill-3" fill="#272C30"></path>
                                        <path d="M42.4012575,42.44943 C43.0452695,38.28213 40.2138323,35.63763 36.9332934,35.63763 C33.2922754,35.63763 30.0431737,38.28213 29.3991617,42.44943 C28.7485629,46.65693 31.1865868,49.26153 34.8276048,49.26153 C38.1081437,49.26153 41.7509581,46.65693 42.4012575,42.44943 L42.4012575,42.44943 Z M45.0261078,52.38693 L40.8653293,52.38693 L41.2183234,50.10303 C39.2192216,51.90603 36.5779042,52.94763 33.5773054,52.94763 C28.3764072,52.94763 24.385988,48.74043 25.3581437,42.44943 C26.3246108,36.19863 31.6219162,31.95123 36.822515,31.95123 C39.8234132,31.95123 42.1425749,32.99313 43.5841916,34.79613 L43.9371856,32.51223 L48.0979641,32.51223 L45.0261078,52.38693 Z" id="Fill-5" fill="#272C30"></path>
                                        <g id="Group-9" transform="translate(48.802395, 31.800000)">
                                            <mask id="mask-2" fill="white">
                                                <use xlink:href="#path-1"></use>
                                            </mask>
                                            <g id="Clip-8"></g>
                                            <path d="M18.2592515,9.76806 C18.8287126,6.08166 16.2736228,3.71736 13.0332036,3.71736 C9.47242515,3.71736 6.30655689,6.08166 5.73709581,9.76806 C5.17332335,13.41456 7.60236527,15.81846 11.1628443,15.81846 C14.4035629,15.81846 17.695479,13.41456 18.2592515,9.76806 L18.2592515,9.76806 Z M20.9002695,18.82386 C19.983503,24.75426 15.3703293,28.20006 9.16913174,28.20006 C4.40835329,28.20006 1.36643713,26.39706 0.224520958,23.43186 L4.01494012,20.90736 C5.1358982,23.23176 6.59038922,24.43386 9.75116766,24.43386 C13.5119461,24.43386 16.3574551,22.06956 16.9523653,18.22296 L17.1505689,16.94046 C15.3826048,18.54336 12.9661377,19.42506 9.92511976,19.42506 C4.84428144,19.42506 0.841586826,15.29796 1.69637725,9.76806 C2.55086826,4.23816 7.81733533,0.19116 12.8978743,0.19116 C15.9388922,0.19116 18.0829042,1.07286 19.3553593,2.67546 L19.6586527,0.71226 L23.6993713,0.71226 L20.9002695,18.82386 Z" id="Fill-7" fill="#272C30" mask="url(#mask-2)"></path>
                                        </g>
                                        <path d="M79.3107784,40.48596 L90.9931138,40.48596 C90.854491,37.24056 88.8221557,35.63766 86.101497,35.63766 C83.5008982,35.63766 80.4461078,37.28046 79.3107784,40.48596 L79.3107784,40.48596 Z M94.8152695,43.45116 L78.7323353,43.45116 C78.5625749,47.13756 80.9023952,49.34166 83.8230539,49.34166 C86.0233533,49.34166 88.3631737,48.70026 90.1967066,45.89556 L93.7937126,46.69716 C91.508982,50.86416 87.6664671,52.94766 83.2655689,52.94766 C77.8643713,52.94766 73.788024,48.78066 74.7601796,42.48966 C75.7389222,36.15816 81.0700599,31.95126 86.6709581,31.95126 C91.9919162,31.95126 95.7610778,36.03816 95.038024,42.00876 L94.8152695,43.45116 Z" id="Fill-10" fill="#272C30"></path>
                                        <g id="Group-14" transform="translate(96.107784, 31.800000)">
                                            <mask id="mask-4" fill="white">
                                                <use xlink:href="#path-3"></use>
                                            </mask>
                                            <g id="Clip-13"></g>
                                            <path d="M4.56748503,14.376 C4.48215569,16.74 6.40760479,17.7417 9.00820359,17.7417 C11.408503,17.7417 13.0959281,16.6599 13.3375449,15.0972 C13.5234731,13.8951 12.801018,13.1337 11.0225749,12.7332 L6.83784431,11.8518 C3.51508982,11.0904 1.83994012,9.2472 2.27317365,6.4422 C2.84323353,2.7558 6.32586826,0.1512 11.0866467,0.1512 C15.6477246,0.1512 18.3567066,2.5551 18.562994,5.8812 L14.4722754,6.7227 C14.4492216,4.7994 13.0132934,3.477 10.4528144,3.477 C8.01239521,3.477 6.74622754,4.6791 6.52946108,6.0816 C6.35610778,7.2036 6.8851497,7.9245 8.58305389,8.3253 L13.1432335,9.3669 C16.2381437,10.0485 17.9073054,11.9316 17.4740719,14.7366 C16.8300599,18.9039 13.0824551,21.1476 8.12167665,21.1476 C3.68065868,21.1476 0.171377246,19.2645 0.270479042,15.2574 L4.56748503,14.376 Z" id="Fill-12" fill="#272C30" mask="url(#mask-4)"></path>
                                        </g>
                                        <polygon id="Fill-15" fill="#3BA949" points="14.195988 16.23168 14.6576647 13.31388 10.4902994 13.31388 16.2268263 6.31878 6.34868263 6.31878 5.88730539 9.23658 9.91964072 9.23658 4.16335329 16.23168"></polygon>
                                        <path d="M19.9512874,4.48305 C21.0315269,4.48305 22.0596707,3.59415 22.2309281,2.51205 C22.4021856,1.42995 21.6551796,0.54105 20.5746407,0.54105 C19.4944012,0.54105 18.4662575,1.42995 18.2952994,2.51205 C18.1240419,3.59415 18.8710479,4.48305 19.9512874,4.48305" id="Fill-17" fill="#3BA949"></path>
                                        <polygon id="Fill-19" fill="#3BA949" points="21.4167066 6.31878 17.9050299 6.31878 16.3373653 16.23168 19.8487425 16.23168"></polygon>
                                        <path d="M26.6117964,11.28489 C26.8043114,10.06749 27.7959281,9.04359 29.2234731,9.04359 C30.6513174,9.04359 31.318982,10.06749 31.1264671,11.28489 C30.9276647,12.54099 29.9453293,13.50729 28.5177844,13.50729 C27.0899401,13.50729 26.412994,12.54099 26.6117964,11.28489 L26.6117964,11.28489 Z M26.0950299,15.28479 C26.71,16.15449 27.8225749,16.56009 28.9608982,16.56009 C31.8935329,16.56009 34.298024,14.16399 34.7507186,11.30409 C35.1998204,8.46369 33.5459281,5.99019 30.5941317,5.99019 C29.4363473,5.99019 28.1668862,6.45399 27.3743713,7.43949 L27.3357485,7.43949 L27.512994,6.31869 L24.0016168,6.31869 L22.0710778,18.52389 L25.5824551,18.52389 L26.0950299,15.28479 Z" id="Fill-21" fill="#3BA949"></path>
                                        <path d="M39.3211377,4.48305 C40.4013772,4.48305 41.429521,3.59415 41.6007784,2.51205 C41.7720359,1.42995 41.0250299,0.54105 39.9447904,0.54105 C38.8642515,0.54105 37.8361078,1.42995 37.6651497,2.51205 C37.4938922,3.59415 38.2408982,4.48305 39.3211377,4.48305" id="Fill-23" fill="#3BA949"></path>
                                        <polygon id="Fill-25" fill="#3BA949" points="40.7865569 6.31878 37.2748802 6.31878 35.707515 16.23168 39.2185928 16.23168"></polygon>
                                        <path d="M42.2669162,16.23168 L45.7782934,16.23168 L46.8875749,9.21738 L49.3378743,9.21738 L49.7962575,6.31878 L47.3459581,6.31878 L47.5998503,4.71498 C47.7770958,3.59418 48.1714072,3.05298 49.077994,3.05298 C49.5408683,3.05298 49.8830838,3.20778 50.2609281,3.38178 L50.7408683,0.34788 C50.2980539,0.09648 49.830988,0.00018 49.2908683,0.00018 C47.9597305,0.00018 46.6169162,0.56028 45.5866766,1.58448 C44.4480539,2.68608 44.2504491,3.69078 44.0333832,5.06298 L43.8345808,6.31878 L42.5998503,6.31878 L42.1414671,9.21738 L43.376497,9.21738 L42.2669162,16.23168 Z" id="Fill-27" fill="#3BA949"></path>
                                        <polygon id="Fill-29" fill="#3BA949" points="63.1856587 6.31878 59.1919461 6.31878 55.8027246 11.40078 53.9632036 6.31878 49.912006 6.31878 53.3428443 14.87928 50.8126048 18.52398 54.7422455 18.52398"></polygon>
                                    </g>
                                </g>
                            </g>
                        </g>
                    </g>
                </g>
            </g>
        </g>
    </g>
</svg>