<?xml version="1.0" encoding="UTF-8"?>
<svg width="340px" height="360px" viewBox="0 0 340 360" version="1.1" xmlns="http://www.w3.org/2000/svg" xmlns:xlink="http://www.w3.org/1999/xlink">
    <!-- Generator: Sketch 47.1 (45422) - http://www.bohemiancoding.com/sketch -->
    <title>zipify_products_hero@3x</title>
    <desc>Created with Sketch.</desc>
    <defs></defs>
    <g id="Mockups" stroke="none" stroke-width="1" fill="none" fill-rule="evenodd">
        <g id="Zipify-products" transform="translate(-194.000000, -151.000000)">
            <g id="Hero-Copy" transform="translate(-49.000000, -101.000000)">
                <g id="zipify_products_hero" transform="translate(243.000000, 252.000000)">
                    <g id="Shopify-logo">
                        <g id="Group-3" fill="#95BF47">
                            <path d="M132.175216,11.6290491 C134.082501,11.6290491 135.989785,12.3916222 137.515613,13.5354819 C123.973891,19.8267099 109.669256,35.6501018 103.756673,67.6781719 C94.7924344,70.5378211 86.209653,73.0161836 78.0083285,75.6851895 C84.8745536,51.2828503 102.040117,11.6290491 132.175216,11.6290491 M144.381838,23.4489322 C146.861309,29.9308035 148.577865,39.0816807 148.577865,51.6641368 L148.577865,53.5705696 C138.278527,56.8115053 127.407004,60.0524409 116.154024,63.6746632 C122.448064,39.6536105 134.463958,27.8337275 144.381838,23.4489322 M175.47058,45.1822655 C170.893097,46.5167684 165.361971,48.2325579 159.830845,50.1389906 L159.830845,46.7074117 C159.830845,36.4126749 158.495746,28.0243708 156.016275,21.3518561 C165.552699,22.4957158 171.465282,32.9810959 175.47058,45.1822655 M250.999057,63.8653064 C250.808328,62.149517 249.282501,61.3869439 248.13813,61.3869439 C246.993759,61.3869439 222.008328,59.4805111 222.008328,59.4805111 C222.008328,59.4805111 204.652037,42.1319731 202.554024,40.4161836 C200.646739,38.5097509 197.022898,39.0816807 195.49707,39.4629673 C195.306342,39.4629673 191.682501,40.6068269 185.769918,42.5132596 C179.857335,25.5460082 169.748726,10.1039029 151.629521,10.1039029 L149.912964,10.1039029 C144.954024,3.62203158 138.469256,0.571739181 133.128858,0.571739181 C91.1685934,0.571739181 70.9513748,52.9986398 64.6573351,79.6886982 C48.2546861,84.8360667 36.620249,88.2676456 35.2851497,88.8395754 C26.1301828,91.6992246 25.9394543,91.8898678 24.7950834,100.468815 C23.8414411,106.950687 0.000381456954,291.302733 0.000381456954,291.302733 L185.579189,325.999809 L286.283825,304.266476 C286.474554,303.885189 251.189785,65.5810959 250.999057,63.8653064" id="Fill-1"></path>
                        </g>
                        <path d="M248.168561,61.1062417 C247.020833,61.1062417 221.962121,59.2005312 221.962121,59.2005312 C221.962121,59.2005312 204.554924,41.8585657 202.450758,40.1434263 C201.685606,39.3811421 200.729167,39 199.964015,39 L186,326 L287,304.276806 C287,304.276806 251.611742,65.6799469 251.420455,63.9648074 C250.655303,62.249668 249.316288,61.4873838 248.168561,61.1062417" id="Fill-4" fill="#5E8E3E"></path>
                    </g>
                    <g id="OCU" transform="translate(193.000000, 180.000000)">
                        <g id="Group-3" fill="#67B800">
                            <path d="M146.99994,73.4999398 C146.99994,114.093026 114.093026,146.99994 73.4999398,146.99994 C32.9074561,146.99994 -6.02459016e-05,114.093026 -6.02459016e-05,73.4999398 C-6.02459016e-05,32.9074561 32.9074561,-6.02459016e-05 73.4999398,-6.02459016e-05 C114.093026,-6.02459016e-05 146.99994,32.9074561 146.99994,73.4999398" id="Fill-1"></path>
                        </g>
                        <path d="M86.7168864,40 L98.3317296,70.7676499 L82.0651465,62.9730677 L76.2728358,97.394038 L63.7005658,97.394038 L69.493481,62.9730677 L50.6036454,70.7676499 L72.5742916,40 L43.2905735,40 L36.4967122,80.3707654 C33.1856115,100.048297 46.7775651,116 66.855722,116 C86.9332745,116 105.894434,100.048297 109.206139,80.3707654 L116,40 L86.7168864,40 Z" id="Fill-4" fill="#FFFFFF"></path>
                    </g>
                    <g id="Pages" transform="translate(53.000000, 179.000000)">
                        <g id="Group-3" fill="#3BA949">
                            <path d="M180.999926,90.5000742 C180.999926,140.481295 140.481889,181.000074 90.4999258,181.000074 C40.5187045,181.000074 -7.41803279e-05,140.481295 -7.41803279e-05,90.5000742 C-7.41803279e-05,40.5181111 40.5187045,7.41803279e-05 90.4999258,7.41803279e-05 C140.481889,7.41803279e-05 180.999926,40.5181111 180.999926,90.5000742" id="Fill-1"></path>
                        </g>
                        <polygon id="Fill-4" fill="#FFFFFF" points="121.142215 49 84.1263311 49 67.2685466 49 64.5995895 65.6832781 63 75.6811754 79.8585282 75.6811754 81.4581177 65.6832781 118.473258 65.6832781 112.614046 102.315986 102.571063 102.315986 99.9028497 119 109.945089 119 126.803617 119 129.472574 102.315986 135.331787 65.6832781 138 49"></polygon>
                        <polygon id="Fill-6" fill="#FFFFFF" points="92 101.666912 75.2186653 101.666912 77.8754015 85 61.0940669 85 61.0851839 85.0588157 58.4380709 101.666912 41.6567362 101.666912 39 118.333088 55.7813347 118.333088 53.1245985 135 69.9059331 135 72.5626693 118.333088 89.3432638 118.333088"></polygon>
                    </g>
                </g>
            </g>
        </g>
    </g>
</svg>